
<svg xmlns="http://www.w3.org/2000/svg" xmlns:xlink="http://www.w3.org/1999/xlink" width="25" height="24.703" >
    <defs>
        <clipPath id="clip-path">
        <rect id="Rectangle_55" data-name="Rectangle 55" width="25" height="24.703" fill="none"/>
        </clipPath>
    </defs>
    <g clip-path="url(#clip-path)">
        <path id="Path_32" data-name="Path 32" d="M1.857,2.6a9.128,9.128,0,0,1,2.159-.258,8.884,8.884,0,0,1,2.566.374,9.307,9.307,0,0,1,5.605,4.732c1.041,2.066,2.058,2.872,3.629,2.872h.121a3.741,3.741,0,0,0,3.475-2.666c.507-1.757-.58-3.274-1.584-4.24A12.263,12.263,0,0,0,5.986.47,12,12,0,0,0,1.857,2.6" transform="translate(2.926 0.001)" fill="#fff"/>
        <path id="Path_33" data-name="Path 33" d="M19.434,8.252a3.731,3.731,0,0,0-3.472-2.666h0c-1.613-.041-2.689.762-3.748,2.87a9.314,9.314,0,0,1-5.605,4.732,9.02,9.02,0,0,1-4.717.126A11.988,11.988,0,0,0,6.01,15.429a12.243,12.243,0,0,0,11.839-2.939c1-.966,2.094-2.483,1.584-4.237" transform="translate(2.977 8.801)" fill="#fff"/>
        <path id="Path_34" data-name="Path 34" d="M.374,12.549A6.078,6.078,0,0,0,3.62,16.6l.24.121a6.91,6.91,0,0,0,6.775-.307,6.633,6.633,0,0,1-1.654-.59A6.744,6.744,0,0,1,5.127,9.241a6.914,6.914,0,0,1,5.263-6.556,6.879,6.879,0,0,0-1.5-.659,6.706,6.706,0,0,0-1.935-.278,7.207,7.207,0,0,0-3.171.737A6.533,6.533,0,0,0,.207,7.08a12.977,12.977,0,0,0-.077,4.152c.062.451.144.894.245,1.316" transform="translate(-0.001 2.755)" fill="#fff"/>
    </g>
</svg>
